<svg width="20" height="20" viewBox="0 0 20 20" fill="none" xmlns="http://www.w3.org/2000/svg">
<g id="icons8-google 5">
<path id="Subtract" fill-rule="evenodd" clip-rule="evenodd" d="M9.17561 2.34542C9.67588 2.01637 10.3239 2.01637 10.8242 2.34542L17.4717 6.71777C17.4814 6.72413 17.4909 6.73059 17.5002 6.73715C17.799 6.91009 18 7.23319 18 7.60323V15.1032C18 16.4839 16.8807 17.6032 15.5 17.6032H4.5C3.11929 17.6032 2 16.4839 2 15.1032V7.60323C2 7.23365 2.2005 6.91089 2.49865 6.73779C2.50829 6.73101 2.51809 6.72434 2.52808 6.71777L9.17561 2.34542ZM9.35148 4.12819C9.74657 3.87443 10.2534 3.87443 10.6485 4.12819L15.5503 7.27652C15.8869 7.49272 16.0272 7.83138 16.0103 8.15961C16.0272 8.48785 15.8869 8.82651 15.5503 9.04271L10.6485 12.191C10.2534 12.4448 9.74657 12.4448 9.35148 12.191L4.44967 9.04271C4.11306 8.82651 3.97271 8.48785 3.98964 8.15961C3.97271 7.83138 4.11306 7.49272 4.44967 7.27652L9.35148 4.12819Z" fill="#3B3B3B"/>
</g>
</svg>
