<svg width="20" height="20" viewBox="0 0 20 20" fill="none" xmlns="http://www.w3.org/2000/svg">
<g id="icons8-google 2">
<path id="Vector" d="M13.9057 1C12.8598 1.0603 11.6591 1.6384 10.9452 2.3746C10.3002 3.04419 9.79139 4.03866 9.99911 5.00075C11.1357 5.03045 12.2765 4.43737 12.9596 3.68768C13.5973 2.98658 14.0807 2.00799 13.9057 1ZM13.9677 4.99899C12.3267 4.99899 11.6406 5.99918 10.504 5.99918C9.33479 5.99918 8.26592 5.06227 6.85085 5.06227C4.92599 5.06317 2 6.83225 2 11.0001C2 14.7918 5.46299 18.9999 7.41778 18.9999C8.60517 19.0116 8.89304 18.2591 10.504 18.251C12.1169 18.2393 12.4649 19.0098 13.6541 18.9999C14.993 18.99 16.0386 17.5302 16.8023 16.3737C17.3502 15.5457 17.5755 15.123 18 14.187C14.8496 13.395 14.2228 8.35445 18 7.31226C17.287 6.10537 15.2059 4.99899 13.9677 4.99899Z" fill="#3B3B3B"/>
</g>
</svg>
