<svg width="20" height="20" viewBox="0 0 20 20" fill="none" xmlns="http://www.w3.org/2000/svg">
<g id="icons8-google 4" clip-path="url(#clip0_1166_27812)">
<path id="Star 9" d="M8.47831 2.68328C8.95727 1.20919 11.0427 1.20918 11.5217 2.68328L12.3349 5.18622C12.5491 5.84546 13.1635 6.2918 13.8566 6.2918H16.4884C18.0383 6.2918 18.6828 8.27518 17.4288 9.18622L15.2997 10.7331C14.7389 11.1406 14.5043 11.8627 14.7185 12.522L15.5317 15.0249C16.0107 16.499 14.3235 17.7248 13.0696 16.8138L10.9405 15.2669C10.3797 14.8594 9.62032 14.8594 9.05954 15.2669L6.93042 16.8138C5.67647 17.7248 3.9893 16.499 4.46827 15.0249L5.28152 12.522C5.49572 11.8627 5.26107 11.1406 4.70029 10.7331L2.57116 9.18622C1.31722 8.27518 1.96166 6.2918 3.51162 6.2918H6.14336C6.83653 6.2918 7.45086 5.84546 7.66505 5.18622L8.47831 2.68328Z" fill="#3B3B3B"/>
</g>
<defs>
<clipPath id="clip0_1166_27812">
<rect width="20" height="20" fill="white"/>
</clipPath>
</defs>
</svg>
