<svg width="137" height="127" viewBox="0 0 137 127" fill="none" xmlns="http://www.w3.org/2000/svg">
<path d="M70.3468 18.7484C69.327 20.0502 67.2754 20.137 66.1507 18.924C58.2936 10.4506 30.84 -14.6134 5.65518 17.2401C-19.517 55.3588 46.4655 104.684 64.1396 116.924C66.7096 118.704 70.0227 118.716 72.606 116.955C74.9117 115.384 78.0351 113.194 81.6695 110.488C83.6758 108.994 84.835 106.633 84.835 104.136V97.2883C84.835 94.1649 87.3736 91.6329 90.5051 91.6329C93.6276 91.6329 96.1607 94.1505 96.175 97.2617V121.345C96.175 124.468 98.7136 127 101.845 127C104.977 127 107.515 124.468 107.515 121.345V86.0898L107.515 86.0628V66.744C107.515 63.6206 110.054 61.0886 113.185 61.0886C116.317 61.0886 118.855 63.6206 118.855 66.744L118.855 66.7538V76.332C118.855 79.4554 121.394 81.9873 124.525 81.9873C127.657 81.9873 130.195 79.4554 130.195 76.332V63.9288C130.195 61.2538 130.9 58.6366 132.042 56.2163C138.192 43.1851 139.445 29.6602 131.044 17.2401C103.039 -17.5856 77.5034 9.61291 70.3468 18.7484Z" fill="#DA3232"/>
<path d="M124.525 85.2025C121.41 85.2025 118.855 87.7216 118.855 90.8291C118.855 93.9366 121.41 96.4557 124.525 96.4557C127.641 96.4557 130.195 93.9366 130.195 90.8291C130.195 87.7216 127.641 85.2025 124.525 85.2025Z" fill="#DA3232"/>
<path d="M37.8357 47.4567C38.0614 47.4567 38.1903 47.4889 38.2225 47.5532C38.2709 47.6014 38.2467 47.7381 38.15 47.9631L37.2555 50.1334C37.1588 50.3585 37.0701 50.5031 36.9895 50.5674C36.9251 50.6157 36.78 50.6398 36.5544 50.6398H28.7454C28.5197 50.6398 28.3827 50.6157 28.3344 50.5674C28.3021 50.5031 28.3344 50.3585 28.4311 50.1334L34.4026 35.448C34.4994 35.2229 34.5799 35.0863 34.6444 35.0381C34.725 34.9738 34.8781 34.9416 35.1038 34.9416H38.0291C38.2548 34.9416 38.3837 34.9738 38.4159 35.0381C38.4482 35.0863 38.424 35.2229 38.3434 35.448L33.4598 47.4567H37.8357Z" fill="white"/>
<path d="M39.0606 48.8071C39.0606 48.2123 39.2379 47.4889 39.5925 46.6369L42.7112 38.9686C43.0819 38.0523 43.4204 37.3289 43.7266 36.7984C44.0329 36.2518 44.3794 35.8419 44.7662 35.5686C45.1692 35.2792 45.6527 35.0943 46.2168 35.014C46.7971 34.9175 47.5465 34.8693 48.4652 34.8693H52.0675C53.0829 34.8693 53.8324 35.03 54.3159 35.3516C54.8156 35.657 55.0654 36.1473 55.0654 36.8225C55.0654 37.4012 54.8881 38.1166 54.5335 38.9686L51.4148 46.6369C51.0441 47.5532 50.7056 48.2847 50.3993 48.8312C50.0931 49.3617 49.7385 49.7717 49.3356 50.061C48.9488 50.3504 48.4652 50.5353 47.885 50.6157C47.3048 50.696 46.5553 50.7362 45.6366 50.7362H42.0343C41.0189 50.7362 40.2694 50.5835 39.7859 50.2781C39.3023 49.9726 39.0606 49.4823 39.0606 48.8071ZM45.9992 47.4567C46.2732 47.4567 46.4828 47.4487 46.6278 47.4326C46.789 47.4166 46.9179 47.3683 47.0146 47.2879C47.1275 47.2076 47.2242 47.095 47.3048 46.9503C47.3853 46.7896 47.4821 46.5806 47.5949 46.3234L50.4719 39.2339C50.6814 38.7355 50.7459 38.4221 50.6653 38.2935C50.5847 38.1648 50.2946 38.1005 49.7949 38.1005H48.1268C47.8689 38.1005 47.6593 38.1086 47.4982 38.1247C47.337 38.1407 47.2 38.189 47.0872 38.2693C46.9905 38.3497 46.9018 38.4622 46.8212 38.6069C46.7406 38.7516 46.6439 38.9606 46.5311 39.2339L43.6541 46.3234C43.4607 46.8217 43.3962 47.1352 43.4607 47.2638C43.5413 47.3924 43.8314 47.4567 44.3311 47.4567H45.9992Z" fill="white"/>
<path d="M65.0594 35.448C65.2205 35.2069 65.3334 35.0622 65.3978 35.014C65.4784 34.9657 65.6396 34.9416 65.8814 34.9416H68.7825C69.0082 34.9416 69.1371 34.9657 69.1694 35.014C69.2016 35.0461 69.1371 35.1828 68.9759 35.4239L59.1603 50.1575C58.9991 50.3986 58.8782 50.5433 58.7976 50.5916C58.7332 50.6237 58.5801 50.6398 58.3383 50.6398H55.4371C55.1954 50.6398 55.0503 50.6237 55.0019 50.5916C54.9697 50.5433 54.9697 50.3986 55.0019 50.1575L57.1778 35.4239C57.2101 35.1828 57.2504 35.0461 57.2987 35.014C57.3632 34.9657 57.5163 34.9416 57.7581 34.9416H60.49C60.7156 34.9416 60.8526 34.9657 60.901 35.014C60.9494 35.0461 60.9494 35.1908 60.901 35.448L59.4746 43.8879L65.0594 35.448Z" fill="white"/>
<path d="M74.3144 47.4567C74.5401 47.4567 74.669 47.4889 74.7012 47.5532C74.7496 47.6014 74.7254 47.7381 74.6287 47.9631L73.7342 50.1334C73.6536 50.3585 73.573 50.5031 73.4924 50.5674C73.4118 50.6157 73.2587 50.6398 73.0331 50.6398H64.7164C64.4907 50.6398 64.3618 50.6157 64.3295 50.5674C64.2973 50.5031 64.3215 50.3585 64.4021 50.1334L70.3736 35.448C70.4542 35.2229 70.5348 35.0863 70.6154 35.0381C70.696 34.9738 70.8491 34.9416 71.0748 34.9416H79.1497C79.3753 34.9416 79.5043 34.9738 79.5365 35.0381C79.5688 35.0863 79.5446 35.2229 79.464 35.448L78.5695 37.6183C78.4728 37.8433 78.3841 37.988 78.3035 38.0523C78.2391 38.1005 78.094 38.1247 77.8684 38.1247H73.2265L72.0176 41.1148H76.2243C76.45 41.1148 76.5789 41.1469 76.6112 41.2112C76.6434 41.2595 76.6112 41.3961 76.5145 41.6212L75.6441 43.7914C75.5474 44.0165 75.4588 44.1612 75.3782 44.2255C75.2976 44.2737 75.1445 44.2978 74.9188 44.2978H70.7121L69.4308 47.4567H74.3144Z" fill="white"/>
<path d="M79.6642 50.1334C79.5675 50.3585 79.4789 50.5031 79.3983 50.5674C79.3338 50.6157 79.1887 50.6398 78.9631 50.6398H76.0377C75.8121 50.6398 75.6751 50.6157 75.6267 50.5674C75.5945 50.5031 75.6267 50.3585 75.7234 50.1334L81.695 35.448C81.7917 35.2229 81.8723 35.0863 81.9368 35.0381C82.0174 34.9738 82.1705 34.9416 82.3961 34.9416H88.7062C90.1568 34.9416 91.0674 35.2631 91.4381 35.9062C91.825 36.5492 91.7283 37.5941 91.148 39.041L90.5194 40.6084C90.2777 41.2032 90.0681 41.6855 89.8909 42.0552C89.7136 42.425 89.5201 42.7385 89.3106 42.9957C89.1011 43.2368 88.8513 43.4458 88.5611 43.6226C88.2871 43.7995 87.9406 43.9843 87.5216 44.1772L87.0139 50.1575C86.9816 50.3986 86.9413 50.5433 86.893 50.5916C86.8446 50.6237 86.6996 50.6398 86.4578 50.6398H83.8709C83.6292 50.6398 83.4841 50.6237 83.4357 50.5916C83.3874 50.5433 83.3793 50.3986 83.4116 50.1575L83.8951 44.4425H81.961L79.6642 50.1334ZM85.0797 41.5247C85.3215 41.5247 85.523 41.5167 85.6841 41.5006C85.8453 41.4685 85.9823 41.4122 86.0951 41.3318C86.208 41.2514 86.3047 41.1389 86.3853 40.9942C86.482 40.8335 86.5787 40.6325 86.6754 40.3914L87.1347 39.2339C87.3443 38.7355 87.4087 38.4221 87.3281 38.2935C87.2476 38.1648 86.9574 38.1005 86.4578 38.1005H84.5479L83.1698 41.5247H85.0797Z" fill="white"/>
<path d="M92.0035 50.7603C90.5529 50.7603 89.6342 50.4388 89.2473 49.7958C88.8766 49.1528 88.9814 48.1078 89.5616 46.661L90.1419 45.19C90.2386 44.965 90.3272 44.8283 90.4078 44.7801C90.4884 44.7158 90.6415 44.6836 90.8672 44.6836H93.6716C93.8973 44.6836 94.0262 44.7158 94.0585 44.7801C94.0907 44.8283 94.0585 44.965 93.9618 45.19L93.5024 46.3716C93.3251 46.8057 93.2687 47.1031 93.3332 47.2638C93.3976 47.4246 93.6797 47.505 94.1793 47.505H94.6629C95.1625 47.505 95.5091 47.4246 95.7025 47.2638C95.912 47.1031 96.1054 46.8057 96.2827 46.3716L96.5003 45.817C96.6131 45.5276 96.5245 45.2704 96.2343 45.0453C95.9442 44.8203 95.5413 44.5711 95.0255 44.2978C94.687 44.1049 94.3244 43.8879 93.9376 43.6467C93.5669 43.4056 93.2445 43.1082 92.9705 42.7545C92.7126 42.4009 92.5434 41.9829 92.4628 41.5006C92.3983 41.0022 92.5031 40.4074 92.7771 39.7162L93.0914 38.9445C93.4621 38.0282 93.8006 37.3048 94.1068 36.7743C94.413 36.2277 94.7676 35.8178 95.1706 35.5445C95.5735 35.2551 96.0571 35.0702 96.6212 34.9898C97.2014 34.8934 97.9509 34.8452 98.8696 34.8452H100.514C101.964 34.8452 102.875 35.1667 103.246 35.8097C103.632 36.4528 103.536 37.4977 102.955 38.9445L102.399 40.319C102.303 40.5441 102.214 40.6888 102.133 40.7531C102.053 40.8013 101.9 40.8254 101.674 40.8254H98.8696C98.6439 40.8254 98.515 40.8013 98.4828 40.7531C98.4505 40.6888 98.4828 40.5441 98.5795 40.319L99.0146 39.2098C99.2081 38.7436 99.2725 38.4381 99.2081 38.2935C99.1597 38.1488 98.9502 38.0764 98.5795 38.0764H98.2652C97.8945 38.0764 97.6205 38.1488 97.4432 38.2935C97.2659 38.4381 97.0805 38.7436 96.8871 39.2098L96.6937 39.7162C96.5648 40.0538 96.597 40.3512 96.7904 40.6084C96.9838 40.8495 97.4432 41.1389 98.1685 41.4765C98.5392 41.6533 98.9099 41.8543 99.2806 42.0793C99.6674 42.3044 99.9817 42.5857 100.223 42.9233C100.481 43.2609 100.634 43.6869 100.683 44.2014C100.731 44.6997 100.61 45.3186 100.32 46.0581L100.078 46.661C99.7077 47.5773 99.3692 48.3088 99.063 48.8554C98.7568 49.3859 98.4022 49.7958 97.9992 50.0852C97.5963 50.3585 97.1047 50.5433 96.5245 50.6398C95.9603 50.7202 95.2189 50.7603 94.3002 50.7603H92.0035Z" fill="white"/>
<path d="M104.96 38.6793C104.815 38.6793 104.735 38.6632 104.719 38.631C104.702 38.5989 104.727 38.5105 104.791 38.3658L106.629 33.7841C106.709 33.5912 106.782 33.4707 106.846 33.4224C106.927 33.3742 107.056 33.3501 107.233 33.3501H110.134C110.328 33.3501 110.432 33.3742 110.448 33.4224C110.465 33.4707 110.408 33.5832 110.279 33.76L107.16 38.3658C107.064 38.5105 106.983 38.5989 106.919 38.631C106.87 38.6632 106.774 38.6793 106.629 38.6793H104.96Z" fill="white"/>
<path d="M32.1059 73.2426C30.6553 73.2426 29.7366 72.921 29.3498 72.278C28.9791 71.635 29.0838 70.59 29.6641 69.1432L32.7828 61.475C33.1535 60.5586 33.492 59.8272 33.7982 59.2806C34.1045 58.734 34.4591 58.3241 34.862 58.0508C35.2649 57.7614 35.7485 57.5766 36.3126 57.4962C36.8928 57.3997 37.6423 57.3515 38.561 57.3515H42.0424C43.493 57.3515 44.4036 57.673 44.7744 58.316C45.1612 58.9591 45.0645 60.0121 44.4842 61.475L43.9765 62.7289C43.8798 62.954 43.7912 63.0986 43.7106 63.1629C43.63 63.2112 43.4769 63.2353 43.2512 63.2353H40.3259C40.1002 63.2353 39.9713 63.2112 39.9391 63.1629C39.9068 63.0986 39.9391 62.954 40.0358 62.7289L40.4226 61.7643C40.6321 61.266 40.6966 60.9525 40.616 60.8239C40.5354 60.6953 40.2453 60.631 39.7456 60.631H38.1984C37.9566 60.631 37.7551 60.6471 37.5939 60.6792C37.4328 60.6953 37.2958 60.7435 37.1829 60.8239C37.0701 60.9043 36.9654 61.0248 36.8686 61.1856C36.7881 61.3303 36.6994 61.5232 36.6027 61.7643L33.7257 68.8297C33.5323 69.3281 33.4678 69.6415 33.5323 69.7702C33.6129 69.8988 33.903 69.9631 34.4026 69.9631H35.9499C36.1917 69.9631 36.3932 69.955 36.5544 69.939C36.7155 69.9068 36.8525 69.8505 36.9654 69.7702C37.0782 69.6898 37.1749 69.5772 37.2555 69.4326C37.3522 69.2718 37.4489 69.0709 37.5456 68.8297L37.9324 67.8652C38.0291 67.6401 38.1178 67.5035 38.1984 67.4552C38.2789 67.3909 38.4321 67.3588 38.6577 67.3588H41.5831C41.8087 67.3588 41.9376 67.3909 41.9699 67.4552C42.0021 67.5035 41.9699 67.6401 41.8732 67.8652L41.3655 69.1432C41.0109 70.0595 40.6805 70.791 40.3742 71.3376C40.068 71.8681 39.7134 72.278 39.3105 72.5674C38.9075 72.8567 38.4159 73.0416 37.8357 73.122C37.2555 73.2024 36.506 73.2426 35.5873 73.2426H32.1059Z" fill="white"/>
<path d="M42.9326 71.3135C42.9326 70.7186 43.1099 69.9952 43.4645 69.1432L46.5832 61.475C46.9539 60.5586 47.2924 59.8352 47.5987 59.3047C47.9049 58.7581 48.2514 58.3482 48.6382 58.0749C49.0412 57.7855 49.5247 57.6007 50.0888 57.5203C50.6691 57.4238 51.4185 57.3756 52.3372 57.3756H55.9395C56.9549 57.3756 57.7044 57.5364 58.188 57.8579C58.6876 58.1633 58.9374 58.6536 58.9374 59.3288C58.9374 59.9076 58.7601 60.6229 58.4055 61.475L55.2868 69.1432C54.9161 70.0595 54.5776 70.791 54.2714 71.3376C53.9651 71.8681 53.6105 72.278 53.2076 72.5674C52.8208 72.8567 52.3372 73.0416 51.757 73.122C51.1768 73.2024 50.4273 73.2426 49.5086 73.2426H45.9063C44.8909 73.2426 44.1414 73.0898 43.6579 72.7844C43.1744 72.479 42.9326 71.9886 42.9326 71.3135ZM49.8712 69.9631C50.1452 69.9631 50.3548 69.955 50.4998 69.939C50.661 69.9229 50.7899 69.8746 50.8867 69.7943C50.9995 69.7139 51.0962 69.6014 51.1768 69.4567C51.2574 69.2959 51.3541 69.0869 51.4669 68.8297L54.3439 61.7402C54.5534 61.2419 54.6179 60.9284 54.5373 60.7998C54.4567 60.6712 54.1666 60.6069 53.6669 60.6069H51.9988C51.7409 60.6069 51.5314 60.6149 51.3702 60.631C51.209 60.6471 51.072 60.6953 50.9592 60.7757C50.8625 60.856 50.7738 60.9686 50.6932 61.1133C50.6127 61.2579 50.5159 61.4669 50.4031 61.7402L47.5261 68.8297C47.3327 69.3281 47.2682 69.6415 47.3327 69.7702C47.4133 69.8988 47.7034 69.9631 48.2031 69.9631H49.8712Z" fill="white"/>
<path d="M57.2783 71.3135C57.2783 70.7186 57.4556 69.9952 57.8102 69.1432L62.3554 57.9543C62.4521 57.7293 62.5327 57.5926 62.5971 57.5444C62.6777 57.4801 62.8308 57.4479 63.0565 57.4479H65.9818C66.2075 57.4479 66.3364 57.4801 66.3687 57.5444C66.417 57.5926 66.3928 57.7293 66.2961 57.9543L61.8718 68.8297C61.6623 69.3281 61.5978 69.6415 61.6784 69.7702C61.759 69.8988 62.0491 69.9631 62.5488 69.9631H63.4917C63.7334 69.9631 63.9349 69.955 64.0961 69.939C64.2572 69.9068 64.3942 69.8505 64.5071 69.7702C64.6199 69.6898 64.7166 69.5772 64.7972 69.4326C64.8939 69.2718 64.9906 69.0709 65.0873 68.8297L69.5116 57.9543C69.6083 57.7293 69.6889 57.5926 69.7534 57.5444C69.834 57.4801 69.9871 57.4479 70.2127 57.4479H73.1381C73.3637 57.4479 73.4927 57.4801 73.5249 57.5444C73.5732 57.5926 73.5491 57.7293 73.4524 57.9543L68.9072 69.1432C68.5365 70.0756 68.198 70.8151 67.8918 71.3617C67.6017 71.8922 67.2551 72.3021 66.8522 72.5915C66.4492 72.8648 65.9577 73.0416 65.3774 73.122C64.8133 73.2024 64.0638 73.2426 63.129 73.2426H60.252C59.2366 73.2426 58.4871 73.0898 58.0036 72.7844C57.5201 72.479 57.2783 71.9886 57.2783 71.3135Z" fill="white"/>
<path d="M74.1272 72.6397C74.0305 72.8648 73.9419 73.0095 73.8613 73.0738C73.7968 73.122 73.6518 73.1461 73.4261 73.1461H70.5008C70.2751 73.1461 70.1381 73.122 70.0898 73.0738C70.0575 73.0095 70.0898 72.8648 70.1865 72.6397L76.1581 57.9543C76.2548 57.7293 76.3354 57.5926 76.3998 57.5444C76.4804 57.4801 76.6335 57.4479 76.8592 57.4479H83.1692C84.6198 57.4479 85.5305 57.7695 85.9012 58.4125C86.288 59.0555 86.1913 60.1005 85.6111 61.5473L84.9825 63.1147C84.7407 63.7095 84.5312 64.1918 84.3539 64.5616C84.1766 64.9313 83.9832 65.2448 83.7736 65.502C83.5641 65.7431 83.3143 65.9521 83.0242 66.129C82.7502 66.3058 82.4036 66.4907 81.9846 66.6836L81.4769 72.6638C81.4446 72.905 81.4044 73.0496 81.356 73.0979C81.3076 73.13 81.1626 73.1461 80.9208 73.1461H78.3339C78.0922 73.1461 77.9471 73.13 77.8988 73.0979C77.8504 73.0496 77.8423 72.905 77.8746 72.6638L78.3581 66.9488H76.424L74.1272 72.6397ZM79.5428 64.031C79.7845 64.031 79.986 64.023 80.1472 64.0069C80.3084 63.9748 80.4453 63.9185 80.5582 63.8381C80.671 63.7578 80.7677 63.6452 80.8483 63.5005C80.945 63.3398 81.0417 63.1388 81.1384 62.8977L81.5978 61.7402C81.8073 61.2419 81.8718 60.9284 81.7912 60.7998C81.7106 60.6712 81.4205 60.6069 80.9208 60.6069H79.0109L77.6328 64.031H79.5428Z" fill="white"/>
<path d="M87.3368 60.6069C87.1112 60.6069 86.9823 60.5828 86.95 60.5345C86.9178 60.4702 86.95 60.3255 87.0467 60.1005L87.9171 57.9543C88.0138 57.7293 88.0944 57.5926 88.1588 57.5444C88.2394 57.4801 88.3925 57.4479 88.6182 57.4479H98.1195C98.3452 57.4479 98.4741 57.4801 98.5064 57.5444C98.5547 57.5926 98.5305 57.7293 98.4338 57.9543L97.5635 60.1005C97.4668 60.3255 97.3781 60.4702 97.2975 60.5345C97.217 60.5828 97.0638 60.6069 96.8382 60.6069H94.0579L89.1742 72.6397C89.0775 72.8648 88.9889 73.0095 88.9083 73.0738C88.8438 73.122 88.6988 73.1461 88.4731 73.1461H85.5478C85.3221 73.1461 85.1851 73.122 85.1368 73.0738C85.1045 73.0095 85.1368 72.8648 85.2335 72.6397L90.1171 60.6069H87.3368Z" fill="white"/>
</svg>
